# xmcd
#
# Track frame offsets:
#	150
#	16332
#	33755
#	50997
#	64030
#	82495
#	98717
#	115055
#	134357
#	149557
#	166225
#	183112
#	202255
#	219427
#	237227
#	255780
#
# Disc length: 3638
#
# Revision: 5
# Processed by: cddbd v1.5.1PL0 Copyright (c) Steve Scherf et al.
# Submitted via: CDex 1.50
# Normalized: r4:TDELIM( - )
#
DISCID=e30e3410
DTITLE=Svenska Klassiker - 33 Svenska klassiker 1995-1999 CD 2
DYEAR=1900
DGENRE=
TTITLE0=Martin - Rymdraket
TTITLE1=Eagle-Eye Cherry - Save tonight
TTITLE2=Robyn - Show me love
TTITLE3=Meja - All 'bout the money
TTITLE4=Jennifer Brown - Tuesday afternoon
TTITLE5=The Cardigans - Erase/Rewind
TTITLE6=Bo Kaspers Orkester - Undantag
TTITLE7=Artister för Amnesty - Tusen röster
TTITLE8=Emila - Big big world
TTITLE9=Ace of Base - Life is a flower
TTITLE10=Papa Dee - Island rock
TTITLE11=Petter - Vinden har vänt
TTITLE12=Blues - Under ytan
TTITLE13=Sophie Zelmani - So long
TTITLE14=Patrik Isaksson - Du får göra som du vill
TTITLE15=Christian Walz - Lovin' is all right
EXTD=
EXTT0=
EXTT1=
EXTT2=
EXTT3=
EXTT4=
EXTT5=
EXTT6=
EXTT7=
EXTT8=
EXTT9=
EXTT10=
EXTT11=
EXTT12=
EXTT13=
EXTT14=
EXTT15=
PLAYORDER=
